<?xml version="1.0" encoding="UTF-8"?>
<!DOCTYPE svg PUBLIC "-//W3C//DTD SVG 1.1//EN" "http://www.w3.org/Graphics/SVG/1.1/DTD/svg11.dtd">
<!-- Creator: CorelDRAW (Versión de evaluación) -->
<svg xmlns="http://www.w3.org/2000/svg" xml:space="preserve" width="75px" height="100px" version="1.1" shape-rendering="geometricPrecision" text-rendering="geometricPrecision" image-rendering="optimizeQuality" fill-rule="evenodd" clip-rule="evenodd"
viewBox="0 0 4.88 6.51"
 xmlns:xlink="http://www.w3.org/1999/xlink"
 xmlns:xodm="http://www.corel.com/coreldraw/odm/2003">
 <defs>
   <linearGradient id="id0" gradientUnits="userSpaceOnUse" x1="-0.83" y1="0.76" x2="4.61" y2="6.56">
    <stop offset="0" stop-opacity="1" stop-color="#00FA36"/>
    <stop offset="1" stop-opacity="1" stop-color="#00570D"/>
   </linearGradient>
 </defs>
 <g id="Capa_x0020_1">
  <metadata id="CorelCorpID_0Corel-Layer"/>
  <path fill="url(#id0)" d="M2.04 2.87l0.04 0.03c0.14,0.08 0.22,0.14 0.35,0.24 0.12,0.09 0.25,0.21 0.34,0.33l0.15 0.18c0.2,0.27 0.23,0.32 0.39,0.61 0.25,0.46 0.45,1.3 0.49,1.83 0,0.09 0.02,0.21 0.02,0.31l-0.51 0.07c-0.01,0.01 -0.02,0.01 -0.03,0.01l-0.53 0c-0.34,-0.03 -0.71,-0.09 -0.94,-0.17 -1.11,-0.35 -1.58,-1.05 -1.76,-2.15l-0.05 -0.5c-0.01,-0.15 0.03,-0.63 0.06,-0.78 0.02,-0.15 0.1,-0.53 0.18,-0.81 0.01,-0.02 0.02,-0.06 0.04,-0.12 0.02,-0.05 0.03,-0.09 0.05,-0.13 0.03,-0.08 0.06,-0.15 0.07,-0.17 0.09,-0.24 0.25,-0.61 0.38,-0.82l0.39 -0.64c0.03,-0.04 0.11,-0.16 0.15,-0.19 -0.01,0.05 -0.02,0.07 -0.03,0.12 -0.01,0.04 -0.02,0.11 -0.02,0.15 -0.01,0.11 0,0.21 0.01,0.31 0.06,0.32 0.22,0.62 0.44,0.85 0.23,0.22 0.28,0.27 0.54,0.44 0.07,0.05 0.13,0.08 0.2,0.12l0.89 0.41c0.16,0.07 0.3,0.14 0.43,0.23 0.12,0.08 0.28,0.18 0.37,0.28 0.06,0.05 0.11,0.1 0.17,0.16 0.26,0.26 0.48,0.69 0.54,1.09 0.07,0.49 -0.03,0.96 -0.2,1.37 -0.02,0.05 -0.03,0.08 -0.05,0.12 -0.04,0.09 -0.22,0.46 -0.28,0.54 -0.01,-0.09 -0.03,-0.2 -0.05,-0.3 -0.04,-0.28 -0.12,-0.59 -0.2,-0.85 -0.14,-0.41 -0.32,-0.81 -0.58,-1.16l-0.16 -0.2c-0.29,-0.28 -0.35,-0.36 -0.73,-0.58l-0.18 -0.09c-0.08,-0.04 -0.32,-0.14 -0.39,-0.14z"/>
  <path fill="#005600" d="M3.31 4.26c0.25,0.46 0.45,1.3 0.49,1.83 0,0.09 0.02,0.21 0.02,0.31 0.1,0.22 0.56,0.08 0.51,-0.21 -0.01,-0.09 -0.03,-0.2 -0.05,-0.3 -0.04,-0.28 -0.12,-0.59 -0.2,-0.85 -0.14,-0.41 -0.32,-0.81 -0.58,-1.16l-0.16 -0.2c-0.29,-0.28 -0.35,-0.36 -0.73,-0.58l-0.18 -0.09c-0.08,-0.04 -0.32,-0.14 -0.39,-0.14l0.04 0.03c0.14,0.08 0.22,0.14 0.35,0.24 0.12,0.09 0.25,0.21 0.34,0.33l0.15 0.18c0.2,0.27 0.23,0.32 0.39,0.61z"/>
 </g>
</svg>
