<?xml version="1.0" encoding="UTF-8"?>
<!DOCTYPE svg PUBLIC "-//W3C//DTD SVG 1.1//EN" "http://www.w3.org/Graphics/SVG/1.1/DTD/svg11.dtd">
<!-- Creator: CorelDRAW (Versión de evaluación) -->
<svg xmlns="http://www.w3.org/2000/svg" xml:space="preserve" width="77px" height="100px" version="1.1" shape-rendering="geometricPrecision" text-rendering="geometricPrecision" image-rendering="optimizeQuality" fill-rule="evenodd" clip-rule="evenodd"
viewBox="0 0 3.46 4.47"
 xmlns:xlink="http://www.w3.org/1999/xlink"
 xmlns:xodm="http://www.corel.com/coreldraw/odm/2003">
 <g id="Capa_x0020_1">
  <metadata id="CorelCorpID_0Corel-Layer"/>
  <path fill="#008700" d="M3.01 3.67c-0.03,0.14 -0.07,0.28 -0.15,0.41 -0.14,0.26 -0.45,0.42 -0.74,0.38 -0.2,-0.02 -0.35,-0.11 -0.44,-0.25 -0.08,-0.01 -0.15,-0.02 -0.21,-0.03 -0.51,-0.09 -0.96,-0.4 -1.23,-0.84 -0.13,-0.21 -0.19,-0.4 -0.23,-0.64 -0.04,-0.28 0.03,-0.59 0.07,-0.88 0.04,-0.27 0.07,-0.55 0.02,-0.84 -0.01,-0.09 -0.03,-0.23 -0.06,-0.32 -0.08,-0.22 -0.01,-0.46 0.19,-0.58 0.17,-0.12 0.34,-0.08 0.52,-0.05 0.11,0.02 0.21,0.04 0.31,0.07 0.99,0.26 2.01,0.88 2.33,1.9 0.04,0.14 0.07,0.34 0.07,0.48 -0.01,0.18 -0.03,0.36 -0.09,0.52 -0.02,0.07 -0.03,0.12 -0.07,0.19 -0.08,0.17 -0.18,0.33 -0.29,0.48z"/>
  <g id="_2977392962528">
   <path fill="#70D588" d="M2.11 3.8c0.02,-0.09 0,-0.18 0.01,-0.27 -0.21,-0.03 -0.35,-0.04 -0.56,-0.14 -0.17,-0.08 -0.32,-0.19 -0.43,-0.31 -0.39,-0.45 -0.34,-0.75 -0.35,-1.33 0,-0.24 -0.06,-0.7 -0.15,-0.93 -0.02,-0.04 -0.02,-0.07 -0.04,-0.11l-0.15 -0.31c0.05,-0.03 0.2,0.01 0.25,0.02 0.09,0.01 0.19,0.03 0.27,0.06 0.86,0.22 1.78,0.76 2.05,1.64 0.03,0.09 0.06,0.25 0.06,0.35 -0.01,0.12 -0.02,0.27 -0.07,0.4 -0.02,0.05 -0.02,0.09 -0.05,0.14 -0.1,0.22 -0.21,0.39 -0.37,0.55 -0.18,0.14 -0.28,0.21 -0.47,0.24z"/>
   <path fill="#53BA76" d="M2.11 3.8c-0.13,0.05 -0.42,0.02 -0.57,0 -0.41,-0.08 -0.76,-0.33 -0.97,-0.66 -0.1,-0.18 -0.14,-0.31 -0.17,-0.5 -0.06,-0.41 0.2,-1.03 0.09,-1.72 -0.02,-0.1 -0.05,-0.29 -0.08,-0.38 -0.02,-0.06 -0.02,-0.11 0.03,-0.14l0.15 0.31c0.02,0.04 0.02,0.07 0.04,0.11 0.09,0.23 0.15,0.69 0.15,0.93 0.01,0.58 -0.04,0.88 0.35,1.33 0.11,0.12 0.26,0.23 0.43,0.31 0.21,0.1 0.35,0.11 0.56,0.14 -0.01,0.09 0.01,0.18 -0.01,0.27z"/>
   <path fill="#BDF1BE" d="M1.54 0.9c0.08,0.04 0.27,0.11 0.26,0.17 0,0.05 -0.03,0.07 -0.06,0.06 -0.01,0 -0.36,-0.17 -0.42,-0.19 -0.08,-0.03 -0.15,-0.06 -0.23,-0.08 -0.11,-0.04 -0.06,-0.14 0.01,-0.13 0.07,0.01 0.36,0.13 0.44,0.17z"/>
   <path fill="#BDF1BE" d="M2.03 1.19c0.09,0.05 0.02,0.15 -0.07,0.1 -0.07,-0.05 -0.01,-0.16 0.07,-0.1z"/>
   <path fill="#4FB565" d="M1.63 1.51c-0.02,-0.05 0.08,-0.26 0.28,0.11 0.67,1.13 0.88,1.79 0.61,2.27 -0.15,0.26 -0.63,0.27 -0.56,-0.13 0.48,-0.52 0.04,-1.42 -0.33,-2.25z"/>
  </g>
 </g>
</svg>
